<?xml version="1.0" encoding="UTF-8" standalone="no"?>
<!DOCTYPE svg PUBLIC "-//W3C//DTD SVG 1.1//EN" "http://www.w3.org/Graphics/SVG/1.1/DTD/svg11.dtd">
<svg width="100%" height="100%" viewBox="0 0 1667 1667" version="1.1" xmlns="http://www.w3.org/2000/svg" xmlns:xlink="http://www.w3.org/1999/xlink" xml:space="preserve" xmlns:serif="http://www.serif.com/" style="fill-rule:evenodd;clip-rule:evenodd;stroke-linejoin:round;stroke-miterlimit:2;">
    <g transform="matrix(2.53165,0,0,2.91206,-32952.3,-5196.73)">
        <g id="Artboard9">
            <rect x="13014.7" y="1784.67" width="658.333" height="572.333" style="fill:none;"/>
            <g transform="matrix(1.43774,5.91611e-32,-4.04511e-47,1.24992,13441.8,1803.24)">
                <path d="M0,213.232L-9.775,213.232C-15.298,213.232 -19.775,208.754 -19.775,203.232C-19.775,197.71 -15.298,193.232 -9.775,193.232L-0.173,193.232C24.997,192.32 44.689,172.42 44.689,147.862C44.689,122.876 24.394,102.548 -0.553,102.548C-1.836,102.548 -2.847,102.577 -3.733,102.638C-6.403,102.826 -9.008,101.941 -11.01,100.189C-13.013,98.437 -14.234,95.959 -14.405,93.303C-17.042,52.198 -51.399,20 -92.623,20C-120.271,20 -145.348,34.128 -159.702,57.794C-161.297,60.423 -164.014,62.173 -167.067,62.538C-170.112,62.9 -173.173,61.841 -175.342,59.66C-180.002,54.975 -186.2,52.395 -192.797,52.395C-206.371,52.395 -217.415,63.438 -217.415,77.011C-217.415,80.882 -216.536,84.594 -214.803,88.044C-213.275,91.082 -213.396,94.686 -215.123,97.614C-216.851,100.543 -219.946,102.393 -223.343,102.527C-247.64,103.486 -266.673,123.337 -266.673,147.72C-266.673,172.577 -246.472,192.932 -221.641,193.095L-213.011,193.1C-207.488,193.103 -203.014,197.583 -203.017,203.106C-203.02,208.627 -207.496,213.1 -213.017,213.1L-213.022,213.1L-221.713,213.095C-257.559,212.859 -286.673,183.532 -286.673,147.72C-286.673,116.93 -265.611,91.151 -236.828,84.284C-237.219,81.9 -237.415,79.473 -237.415,77.011C-237.415,52.41 -217.399,32.395 -192.797,32.395C-184.868,32.395 -177.259,34.449 -170.57,38.307C-152.02,14.135 -123.61,0 -92.623,0C-44.026,0 -3.031,35.657 4.516,82.744C38.13,85.342 64.689,113.556 64.689,147.862C64.689,183.322 36.42,212.034 0.33,213.226C0.221,213.23 0.11,213.232 0,213.232" style="fill:rgb(166,166,166);fill-rule:nonzero;"/>
            </g>
            <g transform="matrix(1,0,0,1,-90.8498,0)">
                <g transform="matrix(1.64583,6.77237e-32,-1.8018e-47,1.43083,13203.9,2197.79)">
                    <path d="M0,82.817C-2.561,82.817 -5.122,81.839 -7.075,79.884C-10.978,75.977 -10.975,69.646 -7.067,65.743L54.836,3.902C58.743,0 65.075,0.002 68.978,3.909C72.881,7.816 72.878,14.147 68.971,18.05L7.067,79.891C5.115,81.841 2.558,82.817 0,82.817" style="fill:rgb(166,166,166);fill-rule:nonzero;"/>
                </g>
                <g transform="matrix(1.64583,6.77237e-32,-1.8018e-47,1.43083,13305.7,2197.73)">
                    <path d="M0,82.88C-2.561,82.88 -5.122,81.902 -7.075,79.947L-68.916,18.044C-72.819,14.137 -72.815,7.806 -68.908,3.902C-65,0 -58.669,0.002 -54.766,3.909L7.075,65.813C10.978,69.72 10.975,76.051 7.067,79.954C5.115,81.904 2.558,82.88 0,82.88" style="fill:rgb(166,166,166);fill-rule:nonzero;"/>
                </g>
                <g transform="matrix(1.64583,6.77237e-32,-1.8018e-47,1.43083,13337.1,2243.27)">
                    <path d="M0,19.971L-0.005,19.971L-100.005,20C-105.528,19.997 -110.003,15.503 -110,9.981C-109.997,4.459 -105.521,-0.029 -100,-0.029L-99.995,-0.029L0.005,0.075C5.528,0.078 10.003,4.505 10,10.028C9.997,15.548 5.52,19.971 0,19.971" style="fill:rgb(166,166,166);fill-rule:nonzero;"/>
                </g>
                <g transform="matrix(1.64583,6.77237e-32,-1.8018e-47,1.43083,13254.8,2171.69)">
                    <path d="M0,120L-0.005,120C-5.528,120 -10.003,115.584 -10,110.062L-9.949,10.028C-9.946,4.507 -5.469,0 0.051,0L0.056,0C5.579,0 10.054,4.549 10.051,10.071L10,110.038C9.997,115.56 5.52,120 0,120" style="fill:rgb(166,166,166);fill-rule:nonzero;"/>
                </g>
            </g>
            <g transform="matrix(1,0,0,1,-134.3,24.038)">
                <g transform="matrix(1.64583,6.77237e-32,-1.8018e-47,1.43083,13432.2,2171.85)">
                    <path d="M0,56.626C-3.445,56.626 -6.797,54.845 -8.653,51.652C-11.431,46.879 -9.813,40.758 -5.038,37.98L55.468,2.781C60.242,0 66.363,1.622 69.14,6.397C71.917,11.17 70.299,17.291 65.524,20.068L5.019,55.268C3.437,56.189 1.707,56.626 0,56.626" style="fill:rgb(166,166,166);fill-rule:nonzero;"/>
                </g>
                <g transform="matrix(1.64583,6.77237e-32,-1.8018e-47,1.43083,13532.6,2173.15)">
                    <path d="M0,54.815C-1.611,54.815 -3.245,54.424 -4.762,53.602L-66.285,20.211C-71.139,17.577 -72.938,11.506 -70.304,6.652C-67.67,1.798 -61.601,0 -56.744,2.633L4.779,36.024C9.633,38.659 11.433,44.729 8.798,49.584C6.986,52.921 3.549,54.815 0,54.815" style="fill:rgb(166,166,166);fill-rule:nonzero;"/>
                </g>
                <g transform="matrix(1.64583,6.77237e-32,-1.8018e-47,1.43083,13482,2150.23)">
                    <path d="M0,89L-0.005,89C-5.528,89 -10.003,84.29 -10,78.768L-9.965,9.97C-9.962,4.448 -5.485,0 0.035,0L0.04,0C5.563,0 10.038,4.343 10.035,9.866L10,78.847C9.997,84.368 5.521,89 0,89" style="fill:rgb(166,166,166);fill-rule:nonzero;"/>
                </g>
            </g>
            <g transform="matrix(1.43774,5.91611e-32,-4.04511e-47,1.24992,13604.2,2029.07)">
                <path d="M0,73.229L-317.708,73.229C-323.23,73.229 -327.708,68.751 -327.708,63.229C-327.708,57.707 -323.23,53.229 -317.708,53.229L0,53.229C8.891,53.229 16.401,45.621 16.401,36.615C16.401,27.454 9.169,20 0.278,20C-8.535,20 -15.706,27.401 -15.706,36.497C-15.706,42.019 -20.184,46.497 -25.706,46.497C-31.229,46.497 -35.706,42.019 -35.706,36.497C-35.706,16.373 -19.563,0 0.278,0C20.196,0 36.401,16.425 36.401,36.615C36.401,56.804 20.072,73.229 0,73.229" style="fill:rgb(166,166,166);fill-rule:nonzero;"/>
            </g>
            <g transform="matrix(1.43774,5.91611e-32,-4.04511e-47,1.24992,13497.7,2141.23)">
                <path d="M0,90.573C-12.147,90.573 -23.502,85.848 -31.971,77.27C-40.385,68.747 -45.019,57.367 -45.019,45.227C-45.019,39.705 -40.541,35.227 -35.019,35.227C-29.496,35.227 -25.019,39.705 -25.019,45.227C-25.019,59.44 -14.029,70.573 0,70.573C14.154,70.573 25.242,59.466 25.242,45.287C25.242,31.344 13.719,20 -0.445,20L-268.605,20C-274.128,20 -278.605,15.522 -278.605,10C-278.605,4.477 -274.128,0 -268.605,0L-0.445,0C24.747,0 45.242,20.315 45.242,45.287C45.242,70.258 24.946,90.573 0,90.573" style="fill:rgb(166,166,166);fill-rule:nonzero;"/>
            </g>
            <g transform="matrix(1.43774,5.91611e-32,-4.04511e-47,1.24992,13340.3,1967.61)">
                <path d="M0,90.894L-108.16,90.894C-113.683,90.894 -118.16,86.416 -118.16,80.894C-118.16,75.372 -113.683,70.894 -108.16,70.894L0,70.894C14.164,70.894 25.687,59.479 25.687,45.448C25.687,31.416 14.364,20 0.445,20C-13.584,20 -24.573,31.181 -24.573,45.454C-24.573,50.976 -29.051,55.454 -34.573,55.454C-40.096,55.454 -44.573,50.976 -44.573,45.454C-44.573,20.391 -24.378,0 0.445,0C25.392,0 45.688,20.388 45.688,45.448C45.688,70.507 25.192,90.894 0,90.894" style="fill:rgb(166,166,166);fill-rule:nonzero;"/>
            </g>
        </g>
    </g>
</svg>
