<?xml version="1.0" encoding="UTF-8" standalone="no"?><!DOCTYPE svg PUBLIC "-//W3C//DTD SVG 1.1//EN" "http://www.w3.org/Graphics/SVG/1.1/DTD/svg11.dtd"><svg width="1667px" height="1667px" version="1.1" xmlns="http://www.w3.org/2000/svg" xmlns:xlink="http://www.w3.org/1999/xlink" xml:space="preserve" xmlns:serif="http://www.serif.com/" style="fill-rule:evenodd;clip-rule:evenodd;stroke-linejoin:round;stroke-miterlimit:2;"><g transform="matrix(1,0,0,1,-21000,0)"><g id="Artboard14" transform="matrix(1,0,0,1,-764.667,-1784)"><rect x="21764.7" y="1784" width="1666.67" height="1666.67" style="fill:none;"/><g transform="matrix(4.16667,1.97215e-31,-6.84228e-47,4.16667,22573.8,3000.31)"><path d="M0,-199.268C-51.128,-194.891 -91.401,-151.876 -91.401,-99.634C-91.401,-44.494 -46.541,0.366 8.599,0.366C35.49,0.366 61.067,-10.51 79.711,-29.342C56.776,-34.798 35.875,-46.941 19.577,-64.521C-1.044,-86.765 -12.401,-115.729 -12.401,-146.079C-12.401,-164.737 -8.153,-182.831 0,-199.268M8.599,20.366C-57.569,20.366 -111.401,-33.466 -111.401,-99.634C-111.401,-165.802 -57.569,-219.634 8.599,-219.634C11.805,-219.634 15.089,-219.5 18.36,-219.237C21.937,-218.948 25.084,-216.765 26.609,-213.517C28.133,-210.269 27.8,-206.453 25.737,-203.517C13.871,-186.641 7.599,-166.779 7.599,-146.079C7.599,-120.788 17.062,-96.653 34.244,-78.119C51.333,-59.683 74.49,-48.422 99.446,-46.411C103.022,-46.122 106.17,-43.94 107.695,-40.691C109.219,-37.443 108.886,-33.626 106.823,-30.691C84.344,1.279 47.625,20.366 8.599,20.366" style="fill:rgb(166,166,166);fill-rule:nonzero;"/></g></g></g></svg>