<?xml version="1.0" encoding="UTF-8" standalone="no"?><!DOCTYPE svg PUBLIC "-//W3C//DTD SVG 1.1//EN" "http://www.w3.org/Graphics/SVG/1.1/DTD/svg11.dtd"><svg width="1667px" height="1667px" version="1.1" xmlns="http://www.w3.org/2000/svg" xmlns:xlink="http://www.w3.org/1999/xlink" xml:space="preserve" xmlns:serif="http://www.serif.com/" style="fill-rule:evenodd;clip-rule:evenodd;stroke-linejoin:round;stroke-miterlimit:2;"><g transform="matrix(1,0,0,1,-5250,2.27374e-13)"><g id="Artboard5" transform="matrix(1,0,0,1,-764.667,-1784.67)"><rect x="6014.67" y="1784.67" width="1666.67" height="1666.67" style="fill:none;"/><clipPath id="_clip1"><rect x="6014.67" y="1784.67" width="1666.67" height="1666.67"/></clipPath><g clip-path="url(#_clip1)"><g transform="matrix(3.75625,1.77789e-31,-4.33686e-47,3.75625,-1524.39,-1409.57)"><g transform="matrix(1,0,-5.47382e-48,1,2108.38,1196.79)"><path d="M0,-119.229C-15.225,-119.229 -27.61,-106.843 -27.61,-91.619C-27.61,-87.276 -26.624,-83.113 -24.68,-79.245C-23.153,-76.208 -23.273,-72.603 -25,-69.674C-26.727,-66.746 -29.823,-64.895 -33.22,-64.761C-60.082,-63.7 -81.125,-41.753 -81.125,-14.797C-81.125,12.596 -58.793,35.029 -31.343,35.209L209.458,35.205C236.662,34.936 258.875,12.505 258.875,-14.797C258.875,-42.376 236.437,-64.814 208.858,-64.814C207.831,-64.814 206.714,-64.77 205.344,-64.674C202.699,-64.492 200.069,-65.371 198.066,-67.124C196.063,-68.876 194.841,-71.354 194.671,-74.01C191.777,-119.11 154.071,-154.438 108.83,-154.438C78.491,-154.438 50.972,-138.93 35.216,-112.952C33.621,-110.322 30.904,-108.573 27.851,-108.208C24.796,-107.846 21.745,-108.905 19.575,-111.086C14.354,-116.337 7.401,-119.229 0,-119.229M-31.408,55.209C-69.88,54.956 -101.125,23.551 -101.125,-14.797C-101.125,-48.121 -78.139,-75.977 -46.846,-83.059C-47.354,-85.859 -47.61,-88.716 -47.61,-91.619C-47.61,-117.871 -26.252,-139.229 0,-139.229C8.721,-139.229 17.078,-136.902 24.37,-132.541C44.352,-158.964 75.183,-174.438 108.83,-174.438C161.418,-174.438 205.746,-135.7 213.611,-84.654C250.01,-82.202 278.875,-51.807 278.875,-14.797C278.875,23.425 247.779,54.828 209.557,55.204L-31.408,55.209Z" style="fill:rgb(153,153,153);fill-rule:nonzero;"/></g><g transform="matrix(1,0,-5.47382e-48,1,2376.24,890.098)"><path d="M0,237.069C-4.533,237.069 -8.639,233.965 -9.725,229.361C-10.992,223.986 -7.662,218.601 -2.286,217.334C16.052,213.009 32.669,203.597 45.8,190.295C22.857,184.841 1.951,172.697 -14.351,155.112C-34.972,132.868 -46.328,103.904 -46.328,73.555C-46.328,54.897 -42.079,36.801 -33.926,20.363C-56.931,22.317 -78.396,32.088 -95.106,48.369C-113.849,66.629 -124.567,91.066 -125.289,117.178C-125.442,122.699 -130.027,127.089 -135.562,126.898C-141.082,126.746 -145.434,122.147 -145.281,116.626C-144.415,85.283 -131.553,55.955 -109.063,34.044C-86.531,12.09 -56.793,0 -25.328,0C-22.122,0 -18.838,0.133 -15.569,0.396C-11.992,0.684 -8.844,2.866 -7.318,6.115C-5.794,9.363 -6.127,13.18 -8.19,16.115C-20.057,32.993 -26.328,52.855 -26.328,73.555C-26.328,98.846 -16.865,122.981 0.316,141.515C17.407,159.951 40.563,171.212 65.519,173.223C69.095,173.511 72.243,175.694 73.768,178.942C75.292,182.191 74.959,186.007 72.896,188.942C55.932,213.069 30.861,230.066 2.304,236.799C1.532,236.982 0.76,237.069 0,237.069" style="fill:rgb(153,153,153);fill-rule:nonzero;"/></g></g></g></g></g></svg>