<?xml version="1.0" encoding="UTF-8" standalone="no"?><!DOCTYPE svg PUBLIC "-//W3C//DTD SVG 1.1//EN" "http://www.w3.org/Graphics/SVG/1.1/DTD/svg11.dtd"><svg width="1667px" height="1667px" version="1.1" xmlns="http://www.w3.org/2000/svg" xmlns:xlink="http://www.w3.org/1999/xlink" xml:space="preserve" xmlns:serif="http://www.serif.com/" style="fill-rule:evenodd;clip-rule:evenodd;stroke-linejoin:round;stroke-miterlimit:2;"><g id="Artboard2" transform="matrix(1,0,0,1,-764.667,-1784.67)"><rect x="764.667" y="1784.67" width="1666.67" height="1666.67" style="fill:none;"/><g transform="matrix(4.16667,1.47911e-31,0,4.16667,1228.35,2785.16)"><path d="M0,-119.229C-15.225,-119.229 -27.611,-106.843 -27.611,-91.619C-27.611,-87.275 -26.625,-83.112 -24.681,-79.245C-23.154,-76.208 -23.274,-72.603 -25.001,-69.674C-26.728,-66.746 -29.824,-64.895 -33.221,-64.761C-60.083,-63.7 -81.125,-41.753 -81.125,-14.797C-81.125,12.596 -58.793,35.029 -31.343,35.209L209.458,35.205C236.662,34.936 258.875,12.505 258.875,-14.797C258.875,-42.376 236.437,-64.814 208.858,-64.814C207.83,-64.814 206.713,-64.77 205.342,-64.674C202.689,-64.489 200.068,-65.372 198.065,-67.124C196.062,-68.876 194.84,-71.354 194.67,-74.01C191.777,-119.11 154.072,-154.438 108.83,-154.438C78.49,-154.438 50.971,-138.93 35.216,-112.953C33.622,-110.323 30.905,-108.573 27.851,-108.208C24.798,-107.848 21.745,-108.905 19.576,-111.086C14.354,-116.337 7.401,-119.229 0,-119.229M-31.409,55.209C-69.88,54.956 -101.125,23.551 -101.125,-14.797C-101.125,-48.121 -78.139,-75.977 -46.847,-83.06C-47.355,-85.859 -47.611,-88.715 -47.611,-91.619C-47.611,-117.871 -26.253,-139.229 0,-139.229C8.72,-139.229 17.078,-136.902 24.37,-132.541C44.351,-158.964 75.182,-174.438 108.83,-174.438C161.418,-174.438 205.746,-135.7 213.61,-84.654C250.009,-82.202 278.875,-51.807 278.875,-14.797C278.875,23.425 247.779,54.828 209.557,55.204L-31.409,55.209Z" style="fill:rgb(140,140,140);fill-rule:nonzero;"/></g></g></svg>