<?xml version="1.0" encoding="UTF-8" standalone="no"?>
<!DOCTYPE svg PUBLIC "-//W3C//DTD SVG 1.1//EN" "http://www.w3.org/Graphics/SVG/1.1/DTD/svg11.dtd">
<svg width="100%" height="100%" viewBox="0 0 1667 1667" version="1.1" xmlns="http://www.w3.org/2000/svg" xmlns:xlink="http://www.w3.org/1999/xlink" xml:space="preserve" xmlns:serif="http://www.serif.com/" style="fill-rule:evenodd;clip-rule:evenodd;stroke-linecap:round;stroke-linejoin:round;stroke-miterlimit:1.5;">
    <g transform="matrix(1,0,0,1,-21000,0)">
        <g transform="matrix(1,0,0,1,-764.667,-1784)">
            <rect x="21764.7" y="1784" width="1666.67" height="1666.67" style="fill:none;"/>
        </g>
        <g transform="matrix(1,0,0,1,21000,0)">
            <circle cx="833.5" cy="833.5" r="159.5" style="fill:none;stroke:rgb(235,235,235);stroke-width:60px;"/>
        </g>
        <g transform="matrix(2.11599,0,0,2.11599,20069.8,-930.176)">
            <circle cx="833.5" cy="833.5" r="159.5" style="fill:none;stroke:rgb(235,235,235);stroke-width:28.36px;"/>
        </g>
        <g>
            <g>
                <g transform="matrix(1,0,0,1,21000,0)">
                    <path d="M833.5,674L833.5,164" style="fill:none;stroke:rgb(235,235,235);stroke-width:50px;"/>
                </g>
                <g transform="matrix(1,0,0,1,21000,0)">
                    <path d="M833.5,318L993,164" style="fill:none;stroke:rgb(235,235,235);stroke-width:50px;"/>
                </g>
                <g transform="matrix(1,0,0,1,21000,0)">
                    <path d="M833.5,318L674,164" style="fill:none;stroke:rgb(235,235,235);stroke-width:50px;"/>
                </g>
            </g>
            <g transform="matrix(1,0,0,-1,0,1668)">
                <g transform="matrix(1,0,0,1,21000,0)">
                    <path d="M833.5,674L833.5,164" style="fill:none;stroke:rgb(235,235,235);stroke-width:50px;"/>
                </g>
                <g transform="matrix(1,0,0,1,21000,0)">
                    <path d="M833.5,318L993,164" style="fill:none;stroke:rgb(235,235,235);stroke-width:50px;"/>
                </g>
                <g transform="matrix(1,0,0,1,21000,0)">
                    <path d="M833.5,318L674,164" style="fill:none;stroke:rgb(235,235,235);stroke-width:50px;"/>
                </g>
            </g>
            <g transform="matrix(6.12323e-17,-1,1,6.12323e-17,21000,22686)">
                <g transform="matrix(1,0,0,1,21000,0)">
                    <path d="M833.5,674L833.5,164" style="fill:none;stroke:rgb(235,235,235);stroke-width:50px;"/>
                </g>
                <g transform="matrix(1,0,0,1,21000,0)">
                    <path d="M833.5,318L993,164" style="fill:none;stroke:rgb(235,235,235);stroke-width:50px;"/>
                </g>
                <g transform="matrix(1,0,0,1,21000,0)">
                    <path d="M833.5,318L674,164" style="fill:none;stroke:rgb(235,235,235);stroke-width:50px;"/>
                </g>
            </g>
            <g transform="matrix(-6.12323e-17,-1,-1,6.12323e-17,22671,22686)">
                <g transform="matrix(1,0,0,1,21000,0)">
                    <path d="M833.5,674L833.5,164" style="fill:none;stroke:rgb(235,235,235);stroke-width:50px;"/>
                </g>
                <g transform="matrix(1,0,0,1,21000,0)">
                    <path d="M833.5,318L993,164" style="fill:none;stroke:rgb(235,235,235);stroke-width:50px;"/>
                </g>
                <g transform="matrix(1,0,0,1,21000,0)">
                    <path d="M833.5,318L674,164" style="fill:none;stroke:rgb(235,235,235);stroke-width:50px;"/>
                </g>
            </g>
        </g>
        <g transform="matrix(0.697401,-0.716681,0.716681,0.697401,6009.68,15901.5)">
            <g>
                <g transform="matrix(1,0,0,1,21000,0)">
                    <path d="M833.5,674L833.5,164" style="fill:none;stroke:rgb(235,235,235);stroke-width:50px;"/>
                </g>
                <g transform="matrix(1,0,0,1,21000,0)">
                    <path d="M833.5,318L993,164" style="fill:none;stroke:rgb(235,235,235);stroke-width:50px;"/>
                </g>
                <g transform="matrix(1,0,0,1,21000,0)">
                    <path d="M833.5,318L674,164" style="fill:none;stroke:rgb(235,235,235);stroke-width:50px;"/>
                </g>
            </g>
            <g transform="matrix(1,0,0,-1,0,1668)">
                <g transform="matrix(1,0,0,1,21000,0)">
                    <path d="M833.5,674L833.5,164" style="fill:none;stroke:rgb(235,235,235);stroke-width:50px;"/>
                </g>
                <g transform="matrix(1,0,0,1,21000,0)">
                    <path d="M833.5,318L993,164" style="fill:none;stroke:rgb(235,235,235);stroke-width:50px;"/>
                </g>
                <g transform="matrix(1,0,0,1,21000,0)">
                    <path d="M833.5,318L674,164" style="fill:none;stroke:rgb(235,235,235);stroke-width:50px;"/>
                </g>
            </g>
            <g transform="matrix(6.12323e-17,-1,1,6.12323e-17,21000,22686)">
                <g transform="matrix(1,0,0,1,21000,0)">
                    <path d="M833.5,674L833.5,164" style="fill:none;stroke:rgb(235,235,235);stroke-width:50px;"/>
                </g>
                <g transform="matrix(1,0,0,1,21000,0)">
                    <path d="M833.5,318L993,164" style="fill:none;stroke:rgb(235,235,235);stroke-width:50px;"/>
                </g>
                <g transform="matrix(1,0,0,1,21000,0)">
                    <path d="M833.5,318L674,164" style="fill:none;stroke:rgb(235,235,235);stroke-width:50px;"/>
                </g>
            </g>
            <g transform="matrix(-6.12323e-17,-1,-1,6.12323e-17,22671,22686)">
                <g transform="matrix(1,0,0,1,21000,0)">
                    <path d="M833.5,674L833.5,164" style="fill:none;stroke:rgb(235,235,235);stroke-width:50px;"/>
                </g>
                <g transform="matrix(1,0,0,1,21000,0)">
                    <path d="M833.5,318L993,164" style="fill:none;stroke:rgb(235,235,235);stroke-width:50px;"/>
                </g>
                <g transform="matrix(1,0,0,1,21000,0)">
                    <path d="M833.5,318L674,164" style="fill:none;stroke:rgb(235,235,235);stroke-width:50px;"/>
                </g>
            </g>
        </g>
    </g>
</svg>
