<?xml version="1.0" encoding="UTF-8" standalone="no"?><!DOCTYPE svg PUBLIC "-//W3C//DTD SVG 1.1//EN" "http://www.w3.org/Graphics/SVG/1.1/DTD/svg11.dtd"><svg width="1667px" height="1667px" version="1.1" xmlns="http://www.w3.org/2000/svg" xmlns:xlink="http://www.w3.org/1999/xlink" xml:space="preserve" xmlns:serif="http://www.serif.com/" style="fill-rule:evenodd;clip-rule:evenodd;stroke-linejoin:round;stroke-miterlimit:2;"><g transform="matrix(1,0,0,1,-22750,0)"><g id="Artboard15" transform="matrix(1,0,0,1,-764.667,-1784)"><rect x="23514.7" y="1784" width="1666.67" height="1666.67" style="fill:none;"/><g transform="matrix(4.16667,1.97215e-31,-6.84228e-47,4.16667,19665.8,-6823.57)"><g transform="matrix(1,0,-5.47382e-48,1,1235,2144.54)"><path d="M0,189.545L10.532,189.549C37.812,189.254 59.997,166.856 59.997,139.596C59.997,112.03 37.559,89.604 9.98,89.604C8.795,89.604 7.538,89.68 6.464,89.754C3.813,89.947 1.191,89.058 -0.812,87.305C-2.815,85.553 -4.038,83.074 -4.208,80.419C-7.101,35.322 -44.806,-0.004 -90.048,-0.004C-120.386,-0.004 -147.905,15.506 -163.662,41.485C-165.256,44.115 -167.973,45.865 -171.027,46.23C-174.081,46.59 -177.134,45.532 -179.302,43.352C-184.523,38.102 -191.475,35.211 -198.878,35.211C-214.103,35.211 -226.489,47.597 -226.489,62.821C-226.489,67.166 -225.503,71.329 -223.559,75.195C-222.032,78.232 -222.152,81.838 -223.879,84.767C-225.605,87.694 -228.702,89.546 -232.099,89.68C-258.961,90.74 -280.003,112.646 -280.003,139.548C-280.003,167.068 -257.701,189.458 -230.287,189.458L-220.003,189.458L0,189.545ZM10.576,209.549L-0.008,209.545L-230.287,209.458C-268.729,209.458 -300.003,178.097 -300.003,139.548C-300.003,106.272 -277.017,78.454 -245.725,71.38C-246.233,68.581 -246.489,65.724 -246.489,62.821C-246.489,36.568 -225.131,15.211 -198.878,15.211C-190.158,15.211 -181.8,17.537 -174.509,21.898C-154.526,-4.527 -123.695,-20.004 -90.048,-20.004C-37.463,-20.004 6.862,18.725 14.73,69.763C51.132,72.211 79.997,102.597 79.997,139.596C79.997,177.792 48.9,209.173 10.678,209.548C10.645,209.549 10.61,209.549 10.576,209.549" style="fill:rgb(179,179,179);fill-rule:nonzero;"/></g><g transform="matrix(1,0,-5.47382e-48,1,1222.62,2419)"><path d="M0,20L-0.007,20L-56.382,19.976C-61.904,19.972 -66.378,15.505 -66.375,9.981C-66.372,4.461 -61.895,0 -56.375,0L-56.368,0L0.007,0.032C5.529,0.036 10.003,4.499 10,10.023C9.997,15.543 5.52,20 0,20" style="fill:rgb(179,179,179);fill-rule:nonzero;"/></g><g transform="matrix(1,0,-5.47382e-48,1,1127.25,2419)"><path d="M0,20L-0.004,20L-99.42,19.976C-104.942,19.974 -109.418,15.508 -109.416,9.984C-109.414,4.463 -104.937,0 -99.416,0L-99.412,0L0.004,0.032C5.526,0.034 10.002,4.496 10,10.02C9.998,15.541 5.521,20 0,20" style="fill:rgb(179,179,179);fill-rule:nonzero;"/></g><g transform="matrix(1,0,-5.47382e-48,1,1245.88,2377)"><path d="M0,20L-0.003,20L-129.544,19.976C-135.067,19.974 -139.542,15.508 -139.541,9.985C-139.54,4.464 -135.062,0 -129.541,0L-129.538,0L0.003,0.032C5.526,0.034 10.001,4.496 10,10.019C9.999,15.54 5.521,20 0,20" style="fill:rgb(179,179,179);fill-rule:nonzero;"/></g><g transform="matrix(1,0,-5.47382e-48,1,1078.88,2377)"><path d="M0,20L-0.005,20L-71.546,19.976C-77.069,19.973 -81.544,15.506 -81.541,9.983C-81.538,4.462 -77.061,0 -71.541,0L-71.536,0L0.005,0.032C5.528,0.035 10.003,4.498 10,10.021C9.997,15.542 5.52,20 0,20" style="fill:rgb(179,179,179);fill-rule:nonzero;"/></g></g></g></g></svg>