<?xml version="1.0" encoding="UTF-8" standalone="no"?>
<!DOCTYPE svg PUBLIC "-//W3C//DTD SVG 1.1//EN" "http://www.w3.org/Graphics/SVG/1.1/DTD/svg11.dtd">
<svg width="100%" height="100%" viewBox="0 0 1667 1667" version="1.1" xmlns="http://www.w3.org/2000/svg" xmlns:xlink="http://www.w3.org/1999/xlink" xml:space="preserve" xmlns:serif="http://www.serif.com/" style="fill-rule:evenodd;clip-rule:evenodd;stroke-linecap:round;stroke-linejoin:round;stroke-miterlimit:1.5;">
    <g transform="matrix(1,0,0,1,-22750,0)">
        <g transform="matrix(1,0,0,1,-764.667,-1784)">
            <rect x="23514.7" y="1784" width="1666.67" height="1666.67" style="fill:none;"/>
        </g>
        <g transform="matrix(5.82886,1.97215e-31,-1.27625e-46,4.16667,24145.8,289)">
            <path d="M0,20L-0.007,20L-56.382,19.976C-61.904,19.972 -66.378,15.505 -66.375,9.981C-66.372,4.461 -61.895,0 -56.375,0L-56.368,0L0.007,0.032C5.529,0.036 10.003,4.499 10,10.023C9.997,15.543 5.52,20 0,20" style="fill:rgb(179,179,179);fill-rule:nonzero;"/>
        </g>
        <g transform="matrix(5.82886,1.97215e-31,-1.27625e-46,4.16667,23580.2,289)">
            <path d="M0,20L-0.004,20L-99.42,19.976C-104.942,19.974 -109.418,15.508 -109.416,9.984C-109.414,4.463 -104.937,0 -99.416,0L-99.412,0L0.004,0.032C5.526,0.034 10.002,4.496 10,10.02C9.998,15.541 5.521,20 0,20" style="fill:rgb(179,179,179);fill-rule:nonzero;"/>
        </g>
        <g transform="matrix(5.82886,1.97215e-31,-1.27625e-46,4.16667,24271.7,114)">
            <path d="M0,20L-0.003,20L-129.544,19.976C-135.067,19.974 -139.542,15.508 -139.541,9.985C-139.54,4.464 -135.062,0 -129.541,0L-129.538,0L0.003,0.032C5.526,0.034 10.001,4.496 10,10.019C9.999,15.54 5.521,20 0,20" style="fill:rgb(179,179,179);fill-rule:nonzero;"/>
        </g>
        <g transform="matrix(5.82886,1.97215e-31,-1.27625e-46,4.16667,23298.3,114)">
            <path d="M0,20L-0.005,20L-71.546,19.976C-77.069,19.973 -81.544,15.506 -81.541,9.983C-81.538,4.462 -77.061,0 -71.541,0L-71.536,0L0.005,0.032C5.528,0.035 10.003,4.498 10,10.021C9.997,15.542 5.52,20 0,20" style="fill:rgb(179,179,179);fill-rule:nonzero;"/>
        </g>
        <g transform="matrix(-5.82886,1.97215e-31,1.27625e-46,4.16667,23007.2,648)">
            <path d="M0,20L-0.007,20L-56.382,19.976C-61.904,19.972 -66.378,15.505 -66.375,9.981C-66.372,4.461 -61.895,0 -56.375,0L-56.368,0L0.007,0.032C5.529,0.036 10.003,4.499 10,10.023C9.997,15.543 5.52,20 0,20" style="fill:rgb(179,179,179);fill-rule:nonzero;"/>
        </g>
        <g transform="matrix(-5.82886,1.97215e-31,1.27625e-46,4.16667,23572.8,648)">
            <path d="M0,20L-0.004,20L-99.42,19.976C-104.942,19.974 -109.418,15.508 -109.416,9.984C-109.414,4.463 -104.937,0 -99.416,0L-99.412,0L0.004,0.032C5.526,0.034 10.002,4.496 10,10.02C9.998,15.541 5.521,20 0,20" style="fill:rgb(179,179,179);fill-rule:nonzero;"/>
        </g>
        <g transform="matrix(-5.82886,1.97215e-31,1.27625e-46,4.16667,22881.3,473)">
            <path d="M0,20L-0.003,20L-129.544,19.976C-135.067,19.974 -139.542,15.508 -139.541,9.985C-139.54,4.464 -135.062,0 -129.541,0L-129.538,0L0.003,0.032C5.526,0.034 10.001,4.496 10,10.019C9.999,15.54 5.521,20 0,20" style="fill:rgb(179,179,179);fill-rule:nonzero;"/>
        </g>
        <g transform="matrix(-5.82886,1.97215e-31,1.27625e-46,4.16667,23854.7,473)">
            <path d="M0,20L-0.005,20L-71.546,19.976C-77.069,19.973 -81.544,15.506 -81.541,9.983C-81.538,4.462 -77.061,0 -71.541,0L-71.536,0L0.005,0.032C5.528,0.035 10.003,4.498 10,10.021C9.997,15.542 5.52,20 0,20" style="fill:rgb(179,179,179);fill-rule:nonzero;"/>
        </g>
        <g transform="matrix(5.82886,1.97215e-31,-1.27625e-46,4.16667,24164.8,1008.5)">
            <path d="M0,20L-0.007,20L-56.382,19.976C-61.904,19.972 -66.378,15.505 -66.375,9.981C-66.372,4.461 -61.895,0 -56.375,0L-56.368,0L0.007,0.032C5.529,0.036 10.003,4.499 10,10.023C9.997,15.543 5.52,20 0,20" style="fill:rgb(179,179,179);fill-rule:nonzero;"/>
        </g>
        <g transform="matrix(5.82886,1.97215e-31,-1.27625e-46,4.16667,23599.2,1008.5)">
            <path d="M0,20L-0.004,20L-99.42,19.976C-104.942,19.974 -109.418,15.508 -109.416,9.984C-109.414,4.463 -104.937,0 -99.416,0L-99.412,0L0.004,0.032C5.526,0.034 10.002,4.496 10,10.02C9.998,15.541 5.521,20 0,20" style="fill:rgb(179,179,179);fill-rule:nonzero;"/>
        </g>
        <g transform="matrix(5.82886,1.97215e-31,-1.27625e-46,4.16667,24290.7,833.5)">
            <path d="M0,20L-0.003,20L-129.544,19.976C-135.067,19.974 -139.542,15.508 -139.541,9.985C-139.54,4.464 -135.062,0 -129.541,0L-129.538,0L0.003,0.032C5.526,0.034 10.001,4.496 10,10.019C9.999,15.54 5.521,20 0,20" style="fill:rgb(179,179,179);fill-rule:nonzero;"/>
        </g>
        <g transform="matrix(5.82886,1.97215e-31,-1.27625e-46,4.16667,23317.3,833.5)">
            <path d="M0,20L-0.005,20L-71.546,19.976C-77.069,19.973 -81.544,15.506 -81.541,9.983C-81.538,4.462 -77.061,0 -71.541,0L-71.536,0L0.005,0.032C5.528,0.035 10.003,4.498 10,10.021C9.997,15.542 5.52,20 0,20" style="fill:rgb(179,179,179);fill-rule:nonzero;"/>
        </g>
        <g transform="matrix(-5.82886,1.97215e-31,1.27625e-46,4.16667,23026.2,1367.5)">
            <path d="M0,20L-0.007,20L-56.382,19.976C-61.904,19.972 -66.378,15.505 -66.375,9.981C-66.372,4.461 -61.895,0 -56.375,0L-56.368,0L0.007,0.032C5.529,0.036 10.003,4.499 10,10.023C9.997,15.543 5.52,20 0,20" style="fill:rgb(179,179,179);fill-rule:nonzero;"/>
        </g>
        <g transform="matrix(-5.82886,1.97215e-31,1.27625e-46,4.16667,23591.8,1367.5)">
            <path d="M0,20L-0.004,20L-99.42,19.976C-104.942,19.974 -109.418,15.508 -109.416,9.984C-109.414,4.463 -104.937,0 -99.416,0L-99.412,0L0.004,0.032C5.526,0.034 10.002,4.496 10,10.02C9.998,15.541 5.521,20 0,20" style="fill:rgb(179,179,179);fill-rule:nonzero;"/>
        </g>
        <g transform="matrix(-5.82886,1.97215e-31,1.27625e-46,4.16667,22900.3,1192.5)">
            <path d="M0,20L-0.003,20L-129.544,19.976C-135.067,19.974 -139.542,15.508 -139.541,9.985C-139.54,4.464 -135.062,0 -129.541,0L-129.538,0L0.003,0.032C5.526,0.034 10.001,4.496 10,10.019C9.999,15.54 5.521,20 0,20" style="fill:rgb(179,179,179);fill-rule:nonzero;"/>
        </g>
        <g transform="matrix(-5.82886,1.97215e-31,1.27625e-46,4.16667,23873.7,1192.5)">
            <path d="M0,20L-0.005,20L-71.546,19.976C-77.069,19.973 -81.544,15.506 -81.541,9.983C-81.538,4.462 -77.061,0 -71.541,0L-71.536,0L0.005,0.032C5.528,0.035 10.003,4.498 10,10.021C9.997,15.542 5.52,20 0,20" style="fill:rgb(179,179,179);fill-rule:nonzero;"/>
        </g>
        <g transform="matrix(0.652689,0,0,0.652689,23050.1,236.984)">
            <circle cx="907.522" cy="833.5" r="548.5" style="fill:none;stroke:rgb(191,191,191);stroke-width:114.91px;"/>
        </g>
    </g>
</svg>
