<?xml version="1.0" encoding="UTF-8" standalone="no"?><!DOCTYPE svg PUBLIC "-//W3C//DTD SVG 1.1//EN" "http://www.w3.org/Graphics/SVG/1.1/DTD/svg11.dtd"><svg width="1667px" height="1668px" version="1.1" xmlns="http://www.w3.org/2000/svg" xmlns:xlink="http://www.w3.org/1999/xlink" xml:space="preserve" xmlns:serif="http://www.serif.com/" style="fill-rule:evenodd;clip-rule:evenodd;stroke-linejoin:round;stroke-miterlimit:2;"><g transform="matrix(1,0,0,1,-3500.67,0)"><g id="Artboard4" transform="matrix(1.00503,0,0,1,-793.806,-1784)"><rect x="4273" y="1784" width="1658.33" height="1667.33" style="fill:none;"/><clipPath id="_clip1"><rect x="4273" y="1784" width="1658.33" height="1667.33"/></clipPath><g clip-path="url(#_clip1)"><g transform="matrix(3.46708,1.64927e-31,-6.065e-47,3.48451,-710.249,-1131.51)"><g transform="matrix(1,0,-5.47382e-48,1,1762.8,944.097)"><path d="M0,179.903C-2.908,179.903 -5.792,178.64 -7.769,176.206C-11.25,171.919 -10.597,165.621 -6.31,162.14C12.508,146.859 23.3,124.21 23.3,100C23.3,55.888 -12.588,20 -56.7,20C-97.503,20 -131.681,50.528 -136.202,91.011C-136.814,96.5 -141.759,100.45 -147.25,99.84C-152.738,99.227 -156.691,94.281 -156.078,88.792C-150.426,38.173 -107.703,0 -56.7,0C-1.56,0 43.3,44.86 43.3,100C43.3,130.261 29.813,158.57 6.298,177.665C4.444,179.171 2.215,179.903 0,179.903" style="fill:rgb(179,179,179);fill-rule:nonzero;"/></g><g transform="matrix(1,0,-5.47382e-48,1,1706,854)"><path d="M0,74C-5.522,74 -10,69.523 -10,64L-10,10C-10,4.477 -5.522,0 0,0C5.522,0 10,4.477 10,10L10,64C10,69.523 5.522,74 0,74" style="fill:rgb(179,179,179);fill-rule:nonzero;"/></g><g transform="matrix(1,0,-5.47382e-48,1,1580,1034)"><path d="M0,20L-54,20C-59.523,20 -64,15.523 -64,10C-64,4.477 -59.523,0 -54,0L0,0C5.523,0 10,4.477 10,10C10,15.523 5.523,20 0,20" style="fill:rgb(179,179,179);fill-rule:nonzero;"/></g><g transform="matrix(1,0,-5.47382e-48,1,1886,1034)"><path d="M0,20L-54,20C-59.522,20 -64,15.523 -64,10C-64,4.477 -59.522,0 -54,0L0,0C5.522,0 10,4.477 10,10C10,15.523 5.522,20 0,20" style="fill:rgb(179,179,179);fill-rule:nonzero;"/></g><g transform="matrix(1,0,-5.47382e-48,1,1794.54,905.744)"><path d="M0,59.714C-2.56,59.714 -5.118,58.738 -7.071,56.785C-10.977,52.88 -10.977,46.548 -7.071,42.643L31.666,3.905C35.572,0 41.902,0 45.809,3.905C49.714,7.811 49.714,14.143 45.809,18.048L7.071,56.785C5.118,58.738 2.56,59.714 0,59.714" style="fill:rgb(179,179,179);fill-rule:nonzero;"/></g><g transform="matrix(1,0,-5.47382e-48,1,1617.46,905.744)"><path d="M0,59.714C-2.559,59.714 -5.119,58.738 -7.071,56.785L-45.809,18.048C-49.713,14.143 -49.713,7.811 -45.809,3.905C-41.903,0 -35.571,0 -31.666,3.905L7.071,42.643C10.976,46.548 10.976,52.88 7.071,56.785C5.119,58.738 2.559,59.714 0,59.714" style="fill:rgb(179,179,179);fill-rule:nonzero;"/></g><g transform="matrix(1,0,-5.47382e-48,1,1833.28,1121.57)"><path d="M0,59.714C-2.56,59.714 -5.118,58.738 -7.071,56.785L-45.809,18.048C-49.714,14.143 -49.714,7.811 -45.809,3.905C-41.902,0 -35.572,0 -31.666,3.905L7.071,42.643C10.977,46.548 10.977,52.88 7.071,56.785C5.118,58.738 2.56,59.714 0,59.714" style="fill:rgb(179,179,179);fill-rule:nonzero;"/></g><g transform="matrix(1,0,-5.47382e-48,1,1537.38,1218.79)"><path d="M0,-119.229C-15.225,-119.229 -27.611,-106.843 -27.611,-91.619C-27.611,-87.275 -26.625,-83.112 -24.681,-79.245C-23.154,-76.208 -23.274,-72.603 -25.001,-69.674C-26.728,-66.746 -29.824,-64.895 -33.221,-64.761C-60.083,-63.7 -81.125,-41.753 -81.125,-14.797C-81.125,12.596 -58.793,35.029 -31.343,35.209L209.458,35.205C236.662,34.936 258.875,12.505 258.875,-14.797C258.875,-42.376 236.437,-64.814 208.858,-64.814C207.831,-64.814 206.713,-64.77 205.343,-64.674C202.697,-64.493 200.069,-65.371 198.066,-67.124C196.063,-68.876 194.84,-71.354 194.67,-74.01C191.777,-119.11 154.072,-154.438 108.83,-154.438C78.49,-154.438 50.971,-138.93 35.216,-112.953C33.622,-110.323 30.905,-108.573 27.851,-108.208C24.797,-107.848 21.745,-108.905 19.576,-111.086C14.354,-116.337 7.401,-119.229 0,-119.229M-31.409,55.209C-69.88,54.956 -101.125,23.551 -101.125,-14.797C-101.125,-48.121 -78.139,-75.977 -46.847,-83.06C-47.355,-85.859 -47.611,-88.715 -47.611,-91.619C-47.611,-117.871 -26.253,-139.229 0,-139.229C8.72,-139.229 17.078,-136.902 24.37,-132.541C44.351,-158.964 75.182,-174.438 108.83,-174.438C161.418,-174.438 205.746,-135.7 213.611,-84.654C250.009,-82.202 278.875,-51.807 278.875,-14.797C278.875,23.425 247.779,54.828 209.556,55.204L-31.409,55.209Z" style="fill:rgb(179,179,179);fill-rule:nonzero;"/></g></g></g></g></g></svg>