<?xml version="1.0" encoding="UTF-8" standalone="no"?><!DOCTYPE svg PUBLIC "-//W3C//DTD SVG 1.1//EN" "http://www.w3.org/Graphics/SVG/1.1/DTD/svg11.dtd"><svg width="1667px" height="1667px" version="1.1" xmlns="http://www.w3.org/2000/svg" xmlns:xlink="http://www.w3.org/1999/xlink" xml:space="preserve" xmlns:serif="http://www.serif.com/" style="fill-rule:evenodd;clip-rule:evenodd;stroke-linejoin:round;stroke-miterlimit:2;"><g transform="matrix(1,0,0,1,-10500,-0.666667)"><g id="Artboard8" transform="matrix(1,0,0,0.9996,-764.667,-1782.62)"><rect x="11264.7" y="1784" width="1666.67" height="1667.33" style="fill:none;"/><g transform="matrix(4.16667,1.97294e-31,-2.28076e-47,4.16833,7393.83,-4420.76)"><g transform="matrix(1,0,-5.47382e-48,1,1235,1554.54)"><path d="M0,189.545L10.532,189.549C37.812,189.254 59.997,166.856 59.997,139.596C59.997,112.03 37.559,89.603 9.98,89.603C8.801,89.603 7.542,89.68 6.464,89.754C3.813,89.941 1.191,89.058 -0.812,87.305C-2.815,85.553 -4.038,83.074 -4.208,80.419C-7.101,35.322 -44.806,-0.004 -90.048,-0.004C-120.386,-0.004 -147.905,15.506 -163.662,41.485C-165.256,44.115 -167.973,45.865 -171.027,46.23C-174.083,46.589 -177.133,45.533 -179.302,43.352C-184.523,38.102 -191.476,35.211 -198.878,35.211C-214.103,35.211 -226.489,47.597 -226.489,62.822C-226.489,67.166 -225.503,71.329 -223.559,75.196C-222.032,78.233 -222.152,81.838 -223.879,84.767C-225.605,87.695 -228.702,89.545 -232.099,89.68C-258.961,90.74 -280.003,112.645 -280.003,139.547C-280.003,167.068 -257.701,189.458 -230.287,189.458L-220.003,189.458L0,189.545ZM10.576,209.549L-0.008,209.545L-230.287,209.458C-268.729,209.458 -300.003,178.097 -300.003,139.547C-300.003,106.271 -277.017,78.454 -245.725,71.379C-246.233,68.581 -246.489,65.724 -246.489,62.822C-246.489,36.569 -225.131,15.211 -198.878,15.211C-190.157,15.211 -181.8,17.537 -174.509,21.898C-154.526,-4.527 -123.695,-20.004 -90.048,-20.004C-37.463,-20.004 6.862,18.725 14.73,69.762C51.132,72.211 79.997,102.596 79.997,139.596C79.997,177.792 48.9,209.173 10.678,209.548C10.645,209.549 10.61,209.549 10.576,209.549" style="fill:rgb(179,179,179);fill-rule:nonzero;"/></g><g transform="matrix(1,0,-5.47382e-48,1,1089.96,1824.95)"><path d="M0,45.994C-2.561,45.994 -5.122,45.016 -7.075,43.061C-10.978,39.154 -10.975,32.822 -7.067,28.92L17.975,3.903C21.882,0 28.214,0.003 32.117,3.91C36.02,7.817 36.017,14.149 32.109,18.052L7.067,43.068C5.115,45.018 2.557,45.994 0,45.994" style="fill:rgb(179,179,179);fill-rule:nonzero;"/></g><g transform="matrix(1,0,-5.47382e-48,1,1002.96,1777.19)"><path d="M0,36.754C-2.561,36.754 -5.122,35.776 -7.075,33.821C-10.978,29.914 -10.975,23.583 -7.067,19.68L8.725,3.903C12.632,0 18.963,0.003 22.867,3.91C26.77,7.817 26.767,14.149 22.859,18.052L7.067,33.828C5.115,35.778 2.558,36.754 0,36.754" style="fill:rgb(179,179,179);fill-rule:nonzero;"/></g><g transform="matrix(1,0,-5.47382e-48,1,1141.96,1777.19)"><path d="M0,36.754C-2.561,36.754 -5.122,35.776 -7.075,33.821C-10.978,29.914 -10.975,23.583 -7.067,19.68L8.725,3.903C12.632,0 18.963,0.003 22.867,3.91C26.77,7.817 26.767,14.149 22.859,18.052L7.067,33.828C5.115,35.778 2.558,36.754 0,36.754" style="fill:rgb(179,179,179);fill-rule:nonzero;"/></g><g transform="matrix(1,0,-5.47382e-48,1,1186.96,1777.18)"><path d="M0,61.918C-2.562,61.918 -5.123,60.94 -7.076,58.984C-10.979,55.077 -10.974,48.745 -7.066,44.843L33.926,3.903C37.833,0 44.165,0.004 48.068,3.912C51.971,7.819 51.966,14.151 48.059,18.054L7.066,58.993C5.114,60.943 2.557,61.918 0,61.918" style="fill:rgb(179,179,179);fill-rule:nonzero;"/></g><g transform="matrix(1,0,-5.47382e-48,1,1035.96,1777.19)"><path d="M0,72.917C-2.561,72.917 -5.122,71.939 -7.075,69.984C-10.978,66.077 -10.975,59.746 -7.067,55.843L44.925,3.903C48.832,0 55.164,0.003 59.067,3.91C62.97,7.817 62.967,14.148 59.06,18.052L7.067,69.991C5.115,71.941 2.557,72.917 0,72.917" style="fill:rgb(179,179,179);fill-rule:nonzero;"/></g></g></g></g></svg>