<?xml version="1.0" encoding="UTF-8" standalone="no"?><!DOCTYPE svg PUBLIC "-//W3C//DTD SVG 1.1//EN" "http://www.w3.org/Graphics/SVG/1.1/DTD/svg11.dtd"><svg width="1667px" height="1667px" version="1.1" xmlns="http://www.w3.org/2000/svg" xmlns:xlink="http://www.w3.org/1999/xlink" xml:space="preserve" xmlns:serif="http://www.serif.com/" style="fill-rule:evenodd;clip-rule:evenodd;stroke-linejoin:round;stroke-miterlimit:2;"><g transform="matrix(1,0,0,1,-1764.67,-1769)"><g id="Artboard19" transform="matrix(0.994431,0,0,1,14.4678,0)"><rect x="1760" y="1769" width="1676" height="1666.67" style="fill:none;"/><g><g transform="matrix(4.19,1.97215e-31,-4.58706e-47,4.16667,3042.15,1913.98)"><path d="M0,189.545L10.532,189.549C37.812,189.254 59.997,166.856 59.997,139.596C59.997,112.03 37.559,89.603 9.98,89.603C8.801,89.603 7.542,89.68 6.464,89.754C3.813,89.941 1.191,89.058 -0.812,87.305C-2.815,85.553 -4.038,83.074 -4.208,80.419C-7.101,35.322 -44.806,-0.004 -90.048,-0.004C-120.386,-0.004 -147.905,15.506 -163.662,41.485C-165.256,44.115 -167.973,45.865 -171.027,46.23C-174.083,46.589 -177.133,45.533 -179.302,43.352C-184.523,38.102 -191.476,35.211 -198.878,35.211C-214.103,35.211 -226.489,47.597 -226.489,62.822C-226.489,67.166 -225.503,71.329 -223.559,75.196C-222.032,78.233 -222.152,81.838 -223.879,84.767C-225.605,87.695 -228.702,89.545 -232.099,89.68C-258.961,90.74 -280.003,112.645 -280.003,139.547C-280.003,167.068 -257.701,189.458 -230.287,189.458L-220.003,189.458L0,189.545ZM10.576,209.549L-0.008,209.545L-230.287,209.458C-268.729,209.458 -300.003,178.097 -300.003,139.547C-300.003,106.271 -277.017,78.454 -245.725,71.379C-246.233,68.581 -246.489,65.724 -246.489,62.822C-246.489,36.569 -225.131,15.211 -198.878,15.211C-190.157,15.211 -181.8,17.537 -174.509,21.898C-154.526,-4.527 -123.695,-20.004 -90.048,-20.004C-37.463,-20.004 6.862,18.725 14.73,69.762C51.132,72.211 79.997,102.596 79.997,139.596C79.997,177.792 48.9,209.173 10.678,209.548C10.645,209.549 10.61,209.549 10.576,209.549" style="fill:rgb(179,179,179);fill-rule:nonzero;"/></g><g transform="matrix(4.19,1.97215e-31,-4.58706e-47,4.16667,2434.41,3040.66)"><path d="M0,45.994C-2.561,45.994 -5.122,45.016 -7.075,43.061C-10.978,39.154 -10.975,32.822 -7.067,28.92L17.975,3.903C21.882,0 28.214,0.003 32.117,3.91C36.02,7.817 36.017,14.149 32.109,18.052L7.067,43.068C5.115,45.018 2.557,45.994 0,45.994" style="fill:rgb(179,179,179);fill-rule:nonzero;"/></g><g transform="matrix(4.19,1.97215e-31,-4.58706e-47,4.16667,2069.88,2841.66)"><path d="M0,36.754C-2.561,36.754 -5.122,35.776 -7.075,33.821C-10.978,29.914 -10.975,23.583 -7.067,19.68L8.725,3.903C12.632,0 18.963,0.003 22.867,3.91C26.77,7.817 26.767,14.149 22.859,18.052L7.067,33.828C5.115,35.778 2.558,36.754 0,36.754" style="fill:rgb(179,179,179);fill-rule:nonzero;"/></g><g transform="matrix(4.19,1.97215e-31,-4.58706e-47,4.16667,2061.68,3093.17)"><path d="M0,36.754C-2.561,36.754 -5.122,35.776 -7.075,33.821C-10.978,29.914 -10.975,23.583 -7.067,19.68L8.725,3.903C12.632,0 18.963,0.003 22.867,3.91C26.77,7.817 26.767,14.149 22.859,18.052L7.067,33.828C5.115,35.778 2.558,36.754 0,36.754" style="fill:rgb(179,179,179);fill-rule:nonzero;"/></g><g transform="matrix(4.19,1.97215e-31,-4.58706e-47,4.16667,2652.29,2841.66)"><path d="M0,36.754C-2.561,36.754 -5.122,35.776 -7.075,33.821C-10.978,29.914 -10.975,23.583 -7.067,19.68L8.725,3.903C12.632,0 18.963,0.003 22.867,3.91C26.77,7.817 26.767,14.149 22.859,18.052L7.067,33.828C5.115,35.778 2.558,36.754 0,36.754" style="fill:rgb(179,179,179);fill-rule:nonzero;"/></g><g transform="matrix(2.54582,0,0,2.91206,-31391.5,-3415.86)"><g transform="matrix(1.64583,6.77237e-32,-1.8018e-47,1.43083,13432.2,2171.85)"><path d="M0,56.626C-3.445,56.626 -6.797,54.845 -8.653,51.652C-11.431,46.879 -9.813,40.758 -5.038,37.98L55.468,2.781C60.242,0 66.363,1.622 69.14,6.397C71.917,11.17 70.299,17.291 65.524,20.068L5.019,55.268C3.437,56.189 1.707,56.626 0,56.626" style="fill:rgb(166,166,166);fill-rule:nonzero;"/></g><g transform="matrix(1.64583,6.77237e-32,-1.8018e-47,1.43083,13532.6,2173.15)"><path d="M0,54.815C-1.611,54.815 -3.245,54.424 -4.762,53.602L-66.285,20.211C-71.139,17.577 -72.938,11.506 -70.304,6.652C-67.67,1.798 -61.601,0 -56.744,2.633L4.779,36.024C9.633,38.659 11.433,44.729 8.798,49.584C6.986,52.921 3.549,54.815 0,54.815" style="fill:rgb(166,166,166);fill-rule:nonzero;"/></g><g transform="matrix(1.64583,6.77237e-32,-1.8018e-47,1.43083,13481.9,2150.23)"><path d="M0,89L-0.005,89C-5.528,89 -10.003,84.29 -10,78.768L-9.965,9.97C-9.962,4.448 -5.485,0 0.035,0L0.04,0C5.563,0 10.038,4.343 10.035,9.866L10,78.847C9.997,84.368 5.521,89 0,89" style="fill:rgb(166,166,166);fill-rule:nonzero;"/></g></g><g transform="matrix(1.97617,0,0,2.26045,-24288.3,-2051.1)"><g transform="matrix(1.64583,6.77237e-32,-1.8018e-47,1.43083,13432.2,2171.85)"><path d="M0,56.626C-3.445,56.626 -6.797,54.845 -8.653,51.652C-11.431,46.879 -9.813,40.758 -5.038,37.98L55.468,2.781C60.242,0 66.363,1.622 69.14,6.397C71.917,11.17 70.299,17.291 65.524,20.068L5.019,55.268C3.437,56.189 1.707,56.626 0,56.626" style="fill:rgb(166,166,166);fill-rule:nonzero;"/></g><g transform="matrix(1.64583,6.77237e-32,-1.8018e-47,1.43083,13532.6,2173.15)"><path d="M0,54.815C-1.611,54.815 -3.245,54.424 -4.762,53.602L-66.285,20.211C-71.139,17.577 -72.938,11.506 -70.304,6.652C-67.67,1.798 -61.601,0 -56.744,2.633L4.779,36.024C9.633,38.659 11.433,44.729 8.798,49.584C6.986,52.921 3.549,54.815 0,54.815" style="fill:rgb(166,166,166);fill-rule:nonzero;"/></g><g transform="matrix(1.64583,6.77237e-32,-1.8018e-47,1.43083,13481.9,2150.23)"><path d="M0,89L-0.005,89C-5.528,89 -10.003,84.29 -10,78.768L-9.965,9.97C-9.962,4.448 -5.485,0 0.035,0L0.04,0C5.563,0 10.038,4.343 10.035,9.866L10,78.847C9.997,84.368 5.521,89 0,89" style="fill:rgb(166,166,166);fill-rule:nonzero;"/></g></g></g></g></g></svg>