<?xml version="1.0" encoding="UTF-8" standalone="no"?><!DOCTYPE svg PUBLIC "-//W3C//DTD SVG 1.1//EN" "http://www.w3.org/Graphics/SVG/1.1/DTD/svg11.dtd"><svg width="1667px" height="1667px" version="1.1" xmlns="http://www.w3.org/2000/svg" xmlns:xlink="http://www.w3.org/1999/xlink" xml:space="preserve" xmlns:serif="http://www.serif.com/" style="fill-rule:evenodd;clip-rule:evenodd;stroke-linejoin:round;stroke-miterlimit:2;"><g transform="matrix(1,0,0,1,-12250.7,-0.666667)"><g id="Artboard9" transform="matrix(2.53165,0,0,2.91206,-20697.9,-5196.38)"><rect x="13014.7" y="1784.67" width="658.333" height="572.333" style="fill:none;"/><clipPath id="_clip1"><rect x="13014.7" y="1784.67" width="658.333" height="572.333"/></clipPath><g clip-path="url(#_clip1)"><g transform="matrix(1.64583,6.77237e-32,-9.009e-48,1.43083,10621.6,-369.465)"><g transform="matrix(1,0,-5.47382e-48,1,1775,1532.54)"><path d="M0,189.545L10.531,189.549C37.812,189.254 59.997,166.855 59.997,139.596C59.997,112.03 37.56,89.603 9.98,89.603C8.802,89.603 7.542,89.68 6.466,89.754C3.823,89.937 1.192,89.058 -0.812,87.305C-2.814,85.553 -4.037,83.074 -4.207,80.419C-7.101,35.322 -44.806,-0.004 -90.047,-0.004C-120.386,-0.004 -147.905,15.506 -163.661,41.485C-165.256,44.115 -167.973,45.865 -171.027,46.23C-174.079,46.592 -177.133,45.533 -179.302,43.352C-184.523,38.102 -191.475,35.211 -198.877,35.211C-214.102,35.211 -226.488,47.597 -226.488,62.822C-226.488,67.166 -225.502,71.329 -223.558,75.196C-222.031,78.233 -222.152,81.838 -223.878,84.767C-225.605,87.695 -228.701,89.545 -232.098,89.68C-258.96,90.74 -280.003,112.645 -280.003,139.547C-280.003,167.068 -257.7,189.458 -230.286,189.458L-220.003,189.458L0,189.545ZM10.576,209.549L-0.008,209.545L-230.286,209.458C-268.728,209.458 -300.003,178.097 -300.003,139.547C-300.003,106.271 -277.017,78.454 -245.724,71.379C-246.232,68.581 -246.488,65.724 -246.488,62.822C-246.488,36.569 -225.13,15.211 -198.877,15.211C-190.157,15.211 -181.8,17.537 -174.508,21.898C-154.526,-4.527 -123.694,-20.004 -90.047,-20.004C-37.463,-20.004 6.862,18.725 14.731,69.762C51.134,72.211 79.997,102.596 79.997,139.596C79.997,177.792 48.9,209.173 10.679,209.548C10.645,209.549 10.61,209.549 10.576,209.549" style="fill:rgb(166,166,166);fill-rule:nonzero;"/></g><g transform="matrix(1,0,-5.47382e-48,1,1569,1794.24)"><path d="M0,82.817C-2.561,82.817 -5.122,81.839 -7.075,79.884C-10.978,75.977 -10.975,69.646 -7.067,65.743L54.836,3.902C58.743,0 65.075,0.002 68.978,3.909C72.881,7.816 72.878,14.147 68.971,18.05L7.067,79.891C5.115,81.841 2.558,82.817 0,82.817" style="fill:rgb(166,166,166);fill-rule:nonzero;"/></g><g transform="matrix(1,0,-5.47382e-48,1,1630.87,1794.2)"><path d="M0,82.88C-2.561,82.88 -5.122,81.902 -7.075,79.947L-68.916,18.044C-72.819,14.137 -72.815,7.806 -68.908,3.902C-65,0 -58.669,0.002 -54.766,3.909L7.075,65.813C10.978,69.72 10.975,76.051 7.067,79.954C5.115,81.904 2.558,82.88 0,82.88" style="fill:rgb(166,166,166);fill-rule:nonzero;"/></g><g transform="matrix(1,0,-5.47382e-48,1,1649.95,1826.03)"><path d="M0,19.971L-0.005,19.971L-100.005,20C-105.528,19.997 -110.003,15.503 -110,9.981C-109.997,4.459 -105.521,-0.029 -100,-0.029L-99.995,-0.029L0.005,0.075C5.528,0.078 10.003,4.505 10,10.028C9.997,15.548 5.52,19.971 0,19.971" style="fill:rgb(166,166,166);fill-rule:nonzero;"/></g><g transform="matrix(1,0,-5.47382e-48,1,1599.93,1776)"><path d="M0,120L-0.005,120C-5.528,120 -10.003,115.584 -10,110.062L-9.949,10.028C-9.946,4.507 -5.469,0 0.051,0L0.056,0C5.579,0 10.054,4.549 10.051,10.071L10,110.038C9.997,115.56 5.52,120 0,120" style="fill:rgb(166,166,166);fill-rule:nonzero;"/></g><g transform="matrix(1,0,-5.47382e-48,1,1707.71,1776.11)"><path d="M0,56.626C-3.445,56.626 -6.797,54.845 -8.653,51.652C-11.431,46.879 -9.813,40.758 -5.038,37.98L55.468,2.781C60.242,0 66.363,1.622 69.14,6.397C71.917,11.17 70.299,17.291 65.524,20.068L5.019,55.268C3.437,56.189 1.707,56.626 0,56.626" style="fill:rgb(166,166,166);fill-rule:nonzero;"/></g><g transform="matrix(1,0,-5.47382e-48,1,1768.71,1777.02)"><path d="M0,54.815C-1.611,54.815 -3.245,54.424 -4.762,53.602L-66.285,20.211C-71.139,17.577 -72.938,11.506 -70.304,6.652C-67.67,1.798 -61.601,0 -56.744,2.633L4.779,36.024C9.633,38.659 11.433,44.729 8.798,49.584C6.986,52.921 3.549,54.815 0,54.815" style="fill:rgb(166,166,166);fill-rule:nonzero;"/></g><g transform="matrix(1,0,-5.47382e-48,1,1737.94,1761)"><path d="M0,89L-0.005,89C-5.528,89 -10.003,84.29 -10,78.768L-9.965,9.97C-9.962,4.448 -5.485,0 0.035,0L0.04,0C5.563,0 10.038,4.343 10.035,9.866L10,78.847C9.997,84.368 5.521,89 0,89" style="fill:rgb(166,166,166);fill-rule:nonzero;"/></g></g></g></g></g></svg>