<?xml version="1.0" encoding="UTF-8" standalone="no"?><!DOCTYPE svg PUBLIC "-//W3C//DTD SVG 1.1//EN" "http://www.w3.org/Graphics/SVG/1.1/DTD/svg11.dtd"><svg width="1667px" height="1667px" version="1.1" xmlns="http://www.w3.org/2000/svg" xmlns:xlink="http://www.w3.org/1999/xlink" xml:space="preserve" xmlns:serif="http://www.serif.com/" style="fill-rule:evenodd;clip-rule:evenodd;stroke-linejoin:round;stroke-miterlimit:2;"><g transform="matrix(1,0,0,1,-1750.67,0)"><g id="Artboard3" transform="matrix(1.00746,0,0,1,-795.173,-1784)"><rect x="2527" y="1784" width="1654.33" height="1666.67" style="fill:none;"/><g transform="matrix(4.13583,1.97215e-31,-2.26388e-47,4.16667,-1294.01,-1857.33)"><g transform="matrix(1,1.09476e-47,-1.09476e-47,1,1125.1,1154.1)"><path d="M0,-160C-44.112,-160 -80,-124.112 -80,-80C-80,-35.888 -44.112,0 0,0C44.112,0 80,-35.888 80,-80C80,-124.112 44.112,-160 0,-160M0,20C-55.14,20 -100,-24.86 -100,-80C-100,-135.14 -55.14,-180 0,-180C55.14,-180 100,-135.14 100,-80C100,-24.86 55.14,20 0,20" style="fill:rgb(179,179,179);fill-rule:nonzero;"/></g><g transform="matrix(1,1.09476e-47,-1.09476e-47,1,1125,884)"><path d="M0,74C-5.523,74 -10,69.523 -10,64L-10,10C-10,4.477 -5.523,0 0,0C5.523,0 10,4.477 10,10L10,64C10,69.523 5.523,74 0,74" style="fill:rgb(179,179,179);fill-rule:nonzero;"/></g><g transform="matrix(1,1.09476e-47,-1.09476e-47,1,1125,1190)"><path d="M0,74C-5.523,74 -10,69.523 -10,64L-10,10C-10,4.477 -5.523,0 0,0C5.523,0 10,4.477 10,10L10,64C10,69.523 5.523,74 0,74" style="fill:rgb(179,179,179);fill-rule:nonzero;"/></g><g transform="matrix(1,1.09476e-47,-1.09476e-47,1,999,1064)"><path d="M0,20L-54,20C-59.523,20 -64,15.523 -64,10C-64,4.477 -59.523,0 -54,0L0,0C5.523,0 10,4.477 10,10C10,15.523 5.523,20 0,20" style="fill:rgb(179,179,179);fill-rule:nonzero;"/></g><g transform="matrix(1,1.09476e-47,-1.09476e-47,1,1305,1064)"><path d="M0,20L-54,20C-59.523,20 -64,15.523 -64,10C-64,4.477 -59.523,0 -54,0L0,0C5.523,0 10,4.477 10,10C10,15.523 5.523,20 0,20" style="fill:rgb(179,179,179);fill-rule:nonzero;"/></g><g transform="matrix(1,1.09476e-47,-1.09476e-47,1,1213.54,935.744)"><path d="M0,59.714C-2.559,59.714 -5.119,58.738 -7.071,56.785C-10.976,52.88 -10.976,46.548 -7.071,42.643L31.666,3.905C35.571,0 41.903,0 45.809,3.905C49.713,7.811 49.713,14.143 45.809,18.048L7.071,56.785C5.119,58.738 2.559,59.714 0,59.714" style="fill:rgb(179,179,179);fill-rule:nonzero;"/></g><g transform="matrix(1,1.09476e-47,-1.09476e-47,1,997.721,1151.57)"><path d="M0,59.714C-2.559,59.714 -5.119,58.738 -7.071,56.785C-10.976,52.88 -10.976,46.548 -7.071,42.643L31.666,3.905C35.571,0 41.903,0 45.809,3.905C49.713,7.811 49.713,14.143 45.809,18.048L7.071,56.785C5.119,58.738 2.559,59.714 0,59.714" style="fill:rgb(179,179,179);fill-rule:nonzero;"/></g><g transform="matrix(1,1.09476e-47,-1.09476e-47,1,1036.46,935.744)"><path d="M0,59.714C-2.559,59.714 -5.119,58.738 -7.071,56.785L-45.809,18.048C-49.713,14.143 -49.713,7.811 -45.809,3.905C-41.903,0 -35.571,0 -31.666,3.905L7.071,42.643C10.976,46.548 10.976,52.88 7.071,56.785C5.119,58.738 2.559,59.714 0,59.714" style="fill:rgb(179,179,179);fill-rule:nonzero;"/></g><g transform="matrix(1,1.09476e-47,-1.09476e-47,1,1252.28,1151.57)"><path d="M0,59.714C-2.559,59.714 -5.119,58.738 -7.071,56.785L-45.809,18.048C-49.713,14.143 -49.713,7.811 -45.809,3.905C-41.903,0 -35.571,0 -31.666,3.905L7.071,42.643C10.976,46.548 10.976,52.88 7.071,56.785C5.119,58.738 2.559,59.714 0,59.714" style="fill:rgb(179,179,179);fill-rule:nonzero;"/></g></g></g></g></svg>