<?xml version="1.0" encoding="UTF-8" standalone="no"?><!DOCTYPE svg PUBLIC "-//W3C//DTD SVG 1.1//EN" "http://www.w3.org/Graphics/SVG/1.1/DTD/svg11.dtd"><svg width="1666px" height="1668px" version="1.1" xmlns="http://www.w3.org/2000/svg" xmlns:xlink="http://www.w3.org/1999/xlink" xml:space="preserve" xmlns:serif="http://www.serif.com/" style="fill-rule:evenodd;clip-rule:evenodd;stroke-linejoin:round;stroke-miterlimit:2;"><g transform="matrix(1,0,0,1,-8752,0)"><g id="Artboard7" transform="matrix(1,0,0,1,-764,-1784)"><rect x="9516" y="1784" width="1665.33" height="1667.33" style="fill:none;"/><g transform="matrix(4.16667,1.97215e-31,-2.28076e-47,4.16667,7863.5,-4481.91)"><g transform="matrix(1,0,-5.47382e-48,1,715.58,1534.54)"><path d="M0,229.553L-10.584,229.549C-16.106,229.547 -20.582,225.069 -20.58,219.545C-20.578,214.024 -16.101,209.549 -10.58,209.549L-10.576,209.549L-0.044,209.553C27.235,209.258 49.42,186.86 49.42,159.6C49.42,132.034 26.983,109.607 -0.596,109.607C-1.775,109.607 -3.035,109.684 -4.112,109.759C-6.765,109.945 -9.386,109.062 -11.389,107.309C-13.392,105.557 -14.614,103.078 -14.784,100.423C-17.677,55.326 -55.382,20 -100.624,20C-130.962,20 -158.481,35.511 -174.238,61.49C-175.833,64.119 -178.549,65.869 -181.604,66.234C-184.656,66.594 -187.709,65.537 -189.878,63.356C-195.1,58.106 -202.052,55.215 -209.454,55.215C-224.679,55.215 -237.065,67.601 -237.065,82.826C-237.065,87.17 -236.079,91.333 -234.135,95.2C-232.608,98.237 -232.729,101.842 -234.455,104.771C-236.182,107.699 -239.278,109.55 -242.675,109.684C-269.537,110.744 -290.58,132.649 -290.58,159.552C-290.58,187.073 -268.277,209.462 -240.863,209.462L-230.58,209.462C-225.057,209.462 -220.58,213.94 -220.58,219.462C-220.58,224.985 -225.057,229.462 -230.58,229.462L-240.863,229.462C-279.305,229.462 -310.58,198.101 -310.58,159.552C-310.58,126.275 -287.593,98.458 -256.301,91.384C-256.809,88.585 -257.065,85.728 -257.065,82.826C-257.065,56.573 -235.707,35.215 -209.454,35.215C-200.733,35.215 -192.376,37.541 -185.085,41.902C-165.103,15.477 -134.271,0 -100.624,0C-48.039,0 -3.714,38.729 4.154,89.766C40.556,92.215 69.42,122.6 69.42,159.6C69.42,197.796 38.324,229.177 0.102,229.552C0.068,229.553 0.034,229.553 0,229.553" style="fill:rgb(179,179,179);fill-rule:nonzero;"/></g><g transform="matrix(1,0,-5.47382e-48,1,501.033,1717.12)"><path d="M0,140.968C-2.557,140.968 -5.114,139.993 -7.066,138.044C-10.974,134.142 -10.979,127.81 -7.076,123.902L35.882,80.883L10,80.883C5.908,80.883 2.229,78.391 0.712,74.59C-0.804,70.79 0.147,66.449 3.114,63.632L66.114,3.803C70.119,0 76.448,0.161 80.251,4.168C84.054,8.172 83.891,14.502 79.886,18.305L35.052,60.883L60,60.883C64.043,60.883 67.689,63.318 69.237,67.053C70.786,70.788 69.933,75.088 67.076,77.949L7.076,138.034C5.123,139.989 2.562,140.968 0,140.968" style="fill:rgb(179,179,179);fill-rule:nonzero;"/></g><g transform="matrix(1,0,-5.47382e-48,1,602.958,1681.83)"><path d="M0,141.107C-2.561,141.107 -5.122,140.129 -7.075,138.174C-10.978,134.267 -10.975,127.936 -7.067,124.033L35.841,81.168L10,81.168C5.913,81.168 2.237,78.68 0.717,74.886C-0.803,71.092 0.139,66.754 3.096,63.933L66.096,3.812C70.092,0 76.421,0.147 80.234,4.143C84.047,8.138 83.899,14.468 79.904,18.281L34.963,61.168L60,61.168C64.045,61.168 67.692,63.605 69.24,67.343C70.787,71.081 69.93,75.383 67.067,78.242L7.067,138.181C5.115,140.131 2.558,141.107 0,141.107" style="fill:rgb(179,179,179);fill-rule:nonzero;"/></g><g transform="matrix(1,0,-5.47382e-48,1,551.958,1824.95)"><path d="M0,45.994C-2.561,45.994 -5.122,45.016 -7.075,43.061C-10.978,39.154 -10.975,32.822 -7.067,28.92L17.975,3.903C21.882,0 28.213,0.003 32.117,3.91C36.02,7.817 36.017,14.149 32.109,18.052L7.067,43.068C5.115,45.018 2.557,45.994 0,45.994" style="fill:rgb(179,179,179);fill-rule:nonzero;"/></g><g transform="matrix(1,0,-5.47382e-48,1,460.958,1801.19)"><path d="M0,36.753C-2.561,36.753 -5.122,35.775 -7.075,33.82C-10.978,29.913 -10.975,23.582 -7.067,19.679L8.725,3.902C12.632,0 18.963,0.003 22.867,3.909C26.77,7.816 26.767,14.148 22.859,18.051L7.067,33.827C5.115,35.777 2.558,36.753 0,36.753" style="fill:rgb(179,179,179);fill-rule:nonzero;"/></g><g transform="matrix(1,0,-5.47382e-48,1,639.958,1779.02)"><path d="M0,72.917C-2.561,72.917 -5.122,71.939 -7.075,69.984C-10.978,66.077 -10.975,59.746 -7.067,55.843L44.925,3.903C48.832,0 55.164,0.003 59.067,3.91C62.97,7.817 62.967,14.148 59.06,18.052L7.067,69.991C5.115,71.941 2.557,72.917 0,72.917" style="fill:rgb(179,179,179);fill-rule:nonzero;"/></g></g></g></g></svg>