<?xml version="1.0" encoding="UTF-8" standalone="no"?><!DOCTYPE svg PUBLIC "-//W3C//DTD SVG 1.1//EN" "http://www.w3.org/Graphics/SVG/1.1/DTD/svg11.dtd"><svg width="1667px" height="1667px" version="1.1" xmlns="http://www.w3.org/2000/svg" xmlns:xlink="http://www.w3.org/1999/xlink" xml:space="preserve" xmlns:serif="http://www.serif.com/" style="fill-rule:evenodd;clip-rule:evenodd;stroke-linecap:round;stroke-linejoin:round;stroke-miterlimit:1.5;"><g transform="matrix(1,0,0,1,0,-1769)"><g id="Artboard18" transform="matrix(0.999201,0,0,1,0.999201,-0.166667)"><rect x="-1" y="1769.17" width="1668" height="1666.67" style="fill:none;"/><g transform="matrix(4.17,1.47911e-31,0,4.16667,462.391,2816.22)"><path d="M0,-119.229C-15.225,-119.229 -27.611,-106.843 -27.611,-91.619C-27.611,-87.275 -26.625,-83.112 -24.681,-79.245C-23.154,-76.208 -23.274,-72.603 -25.001,-69.674C-26.728,-66.746 -29.824,-64.895 -33.221,-64.761C-60.083,-63.7 -81.125,-41.753 -81.125,-14.797C-81.125,12.596 -58.793,35.029 -31.343,35.209L209.458,35.205C236.662,34.936 258.875,12.505 258.875,-14.797C258.875,-42.376 236.437,-64.814 208.858,-64.814C207.83,-64.814 206.713,-64.77 205.342,-64.674C202.689,-64.489 200.068,-65.372 198.065,-67.124C196.062,-68.876 194.84,-71.354 194.67,-74.01C191.777,-119.11 154.072,-154.438 108.83,-154.438C78.49,-154.438 50.971,-138.93 35.216,-112.953C33.622,-110.323 30.905,-108.573 27.851,-108.208C24.798,-107.848 21.745,-108.905 19.576,-111.086C14.354,-116.337 7.401,-119.229 0,-119.229M-31.409,55.209C-69.88,54.956 -101.125,23.551 -101.125,-14.797C-101.125,-48.121 -78.139,-75.977 -46.847,-83.06C-47.355,-85.859 -47.611,-88.715 -47.611,-91.619C-47.611,-117.871 -26.253,-139.229 0,-139.229C8.72,-139.229 17.078,-136.902 24.37,-132.541C44.351,-158.964 75.182,-174.438 108.83,-174.438C161.418,-174.438 205.746,-135.7 213.61,-84.654C250.009,-82.202 278.875,-51.807 278.875,-14.797C278.875,23.425 247.779,54.828 209.557,55.204L-31.409,55.209Z" style="fill:rgb(140,140,140);fill-rule:nonzero;"/></g><g transform="matrix(4.17,1.97215e-31,-2.28258e-47,4.16667,-3853.58,-1872.17)"><g transform="matrix(1,1.09476e-47,-1.09476e-47,1,1125.1,1154.1)"><path d="M0,-160C-44.112,-160 -80,-124.112 -80,-80C-80,-35.888 -44.112,0 0,0C44.112,0 80,-35.888 80,-80C80,-124.112 44.112,-160 0,-160M0,20C-55.14,20 -100,-24.86 -100,-80C-100,-135.14 -55.14,-180 0,-180C55.14,-180 100,-135.14 100,-80C100,-24.86 55.14,20 0,20" style="fill:rgb(179,179,179);fill-rule:nonzero;"/></g><g transform="matrix(1,1.09476e-47,-1.09476e-47,1,1125,884)"><path d="M0,74C-5.523,74 -10,69.523 -10,64L-10,10C-10,4.477 -5.523,0 0,0C5.523,0 10,4.477 10,10L10,64C10,69.523 5.523,74 0,74" style="fill:rgb(179,179,179);fill-rule:nonzero;"/></g><g transform="matrix(1,1.09476e-47,-1.09476e-47,1,1125,1190)"><path d="M0,74C-5.523,74 -10,69.523 -10,64L-10,10C-10,4.477 -5.523,0 0,0C5.523,0 10,4.477 10,10L10,64C10,69.523 5.523,74 0,74" style="fill:rgb(179,179,179);fill-rule:nonzero;"/></g><g transform="matrix(1,1.09476e-47,-1.09476e-47,1,999,1064)"><path d="M0,20L-54,20C-59.523,20 -64,15.523 -64,10C-64,4.477 -59.523,0 -54,0L0,0C5.523,0 10,4.477 10,10C10,15.523 5.523,20 0,20" style="fill:rgb(179,179,179);fill-rule:nonzero;"/></g><g transform="matrix(1,1.09476e-47,-1.09476e-47,1,1305,1064)"><path d="M0,20L-54,20C-59.523,20 -64,15.523 -64,10C-64,4.477 -59.523,0 -54,0L0,0C5.523,0 10,4.477 10,10C10,15.523 5.523,20 0,20" style="fill:rgb(179,179,179);fill-rule:nonzero;"/></g><g transform="matrix(1,1.09476e-47,-1.09476e-47,1,1213.54,935.744)"><path d="M0,59.714C-2.559,59.714 -5.119,58.738 -7.071,56.785C-10.976,52.88 -10.976,46.548 -7.071,42.643L31.666,3.905C35.571,0 41.903,0 45.809,3.905C49.713,7.811 49.713,14.143 45.809,18.048L7.071,56.785C5.119,58.738 2.559,59.714 0,59.714" style="fill:rgb(179,179,179);fill-rule:nonzero;"/></g><g transform="matrix(1,1.09476e-47,-1.09476e-47,1,997.721,1151.57)"><path d="M0,59.714C-2.559,59.714 -5.119,58.738 -7.071,56.785C-10.976,52.88 -10.976,46.548 -7.071,42.643L31.666,3.905C35.571,0 41.903,0 45.809,3.905C49.713,7.811 49.713,14.143 45.809,18.048L7.071,56.785C5.119,58.738 2.559,59.714 0,59.714" style="fill:rgb(179,179,179);fill-rule:nonzero;"/></g><g transform="matrix(1,1.09476e-47,-1.09476e-47,1,1036.46,935.744)"><path d="M0,59.714C-2.559,59.714 -5.119,58.738 -7.071,56.785L-45.809,18.048C-49.713,14.143 -49.713,7.811 -45.809,3.905C-41.903,0 -35.571,0 -31.666,3.905L7.071,42.643C10.976,46.548 10.976,52.88 7.071,56.785C5.119,58.738 2.559,59.714 0,59.714" style="fill:rgb(179,179,179);fill-rule:nonzero;"/></g><g transform="matrix(1,1.09476e-47,-1.09476e-47,1,1252.28,1151.57)"><path d="M0,59.714C-2.559,59.714 -5.119,58.738 -7.071,56.785L-45.809,18.048C-49.713,14.143 -49.713,7.811 -45.809,3.905C-41.903,0 -35.571,0 -31.666,3.905L7.071,42.643C10.976,46.548 10.976,52.88 7.071,56.785C5.119,58.738 2.559,59.714 0,59.714" style="fill:rgb(179,179,179);fill-rule:nonzero;"/></g></g><g transform="matrix(1.0008,0,0,1,-1,0.166667)"><path d="M1092,1960.59L1163,2089.23L838,2263L937,2397L663,2487L761,2619.04L361,2720L430,2873L172,2962.76" style="fill:none;stroke:rgb(217,217,217);stroke-width:66.67px;"/></g><g transform="matrix(1.0008,0,0,1,456.525,76.4567)"><path d="M125,2172.56C313,1718 961,1971 410,2461.67C322.561,2539.54 369,2836 369,2836" style="fill:none;stroke:white;stroke-width:133.33px;"/></g><g transform="matrix(1.57203,0,0,1.50633,-537.072,-1666.53)"><ellipse cx="874.5" cy="3257.5" rx="36.5" ry="39.5" style="fill:white;"/></g></g></g></svg>