<?xml version="1.0" encoding="UTF-8" standalone="no"?><!DOCTYPE svg PUBLIC "-//W3C//DTD SVG 1.1//EN" "http://www.w3.org/Graphics/SVG/1.1/DTD/svg11.dtd"><svg width="1667px" height="1667px" version="1.1" xmlns="http://www.w3.org/2000/svg" xmlns:xlink="http://www.w3.org/1999/xlink" xml:space="preserve" xmlns:serif="http://www.serif.com/" style="fill-rule:evenodd;clip-rule:evenodd;stroke-linejoin:round;stroke-miterlimit:2;"><g transform="matrix(1,0,0,1,-15750,2.27374e-13)"><g id="Artboard11" transform="matrix(1,0,0,1,-764.667,-1784.67)"><rect x="16514.7" y="1784.67" width="1666.67" height="1666.67" style="fill:none;"/><g transform="matrix(4.16667,1.97215e-31,-2.28076e-47,4.16667,8097.23,-4606.59)"><g transform="matrix(-1,0,-5.47382e-48,1,2106.63,1638.02)"><path d="M0,73.979L-253.082,73.979C-272.754,73.979 -289.374,57.04 -289.374,36.99C-289.374,16.594 -273.12,0 -253.142,0C-233.179,0 -216.938,16.485 -216.938,36.747C-216.938,42.27 -221.416,46.747 -226.938,46.747C-232.461,46.747 -236.938,42.27 -236.938,36.747C-236.938,27.669 -244.358,20 -253.142,20C-261.94,20 -269.374,27.78 -269.374,36.99C-269.374,46.199 -261.913,53.979 -253.082,53.979L0,53.979C5.522,53.979 10,58.456 10,63.979C10,69.502 5.522,73.979 0,73.979" style="fill:rgb(179,179,179);fill-rule:nonzero;"/></g><g transform="matrix(-1,0,-5.47382e-48,1,2055.63,1576.96)"><path d="M0,92.035L-204.862,92.035C-229.988,92.035 -250.43,71.392 -250.43,46.018C-250.43,20.644 -230.081,0 -205.069,0C-180.114,0 -159.812,20.561 -159.812,45.833C-159.812,51.356 -164.29,55.833 -169.812,55.833C-175.335,55.833 -179.812,51.356 -179.812,45.833C-179.812,31.589 -191.143,20 -205.069,20C-219.053,20 -230.43,31.672 -230.43,46.018C-230.43,60.12 -218.722,72.035 -204.862,72.035L0,72.035C5.522,72.035 10,76.512 10,82.035C10,87.558 5.522,92.035 0,92.035" style="fill:rgb(179,179,179);fill-rule:nonzero;"/></g><g transform="matrix(-1,0,-5.47382e-48,1,2327.26,1734)"><path d="M0,89.823C-12.139,89.823 -23.521,85.217 -32.053,76.852C-40.668,68.406 -45.413,57.062 -45.413,44.912C-45.413,20.147 -24.995,0 0.102,0L249.636,0C255.158,0 259.636,4.477 259.636,10C259.636,15.522 255.158,20 249.636,20L0.102,20C-14.206,20 -25.413,30.942 -25.413,44.912C-25.413,58.881 -14.25,69.823 0,69.823C14.222,69.823 25.362,58.8 25.362,44.727C25.362,39.205 29.84,34.727 35.362,34.727C40.885,34.727 45.362,39.205 45.362,44.727C45.362,69.594 25.013,89.823 0,89.823" style="fill:rgb(179,179,179);fill-rule:nonzero;"/></g></g></g></g></svg>