<?xml version="1.0" encoding="UTF-8" standalone="no"?><!DOCTYPE svg PUBLIC "-//W3C//DTD SVG 1.1//EN" "http://www.w3.org/Graphics/SVG/1.1/DTD/svg11.dtd"><svg width="1667px" height="1667px" version="1.1" xmlns="http://www.w3.org/2000/svg" xmlns:xlink="http://www.w3.org/1999/xlink" xml:space="preserve" xmlns:serif="http://www.serif.com/" style="fill-rule:evenodd;clip-rule:evenodd;stroke-linejoin:round;stroke-miterlimit:2;"><g transform="matrix(1,0,0,1,-17500,-1769.17)"><g id="Artboard17" transform="matrix(1,0,0,0.9998,-0.666667,0.520396)"><rect x="17500.7" y="1769" width="1666.67" height="1667" style="fill:none;"/><g><g transform="matrix(3.63985,1.72315e-31,-1.02408e-46,3.64058,18989.5,2601.21)"><path d="M0,73.229L-317.708,73.229C-323.23,73.229 -327.708,68.751 -327.708,63.229C-327.708,57.707 -323.23,53.229 -317.708,53.229L0,53.229C8.891,53.229 16.401,45.621 16.401,36.615C16.401,27.454 9.169,20 0.278,20C-8.535,20 -15.706,27.401 -15.706,36.497C-15.706,42.019 -20.184,46.497 -25.706,46.497C-31.229,46.497 -35.706,42.019 -35.706,36.497C-35.706,16.373 -19.563,0 0.278,0C20.196,0 36.401,16.425 36.401,36.615C36.401,56.804 20.072,73.229 0,73.229" style="fill:rgb(166,166,166);fill-rule:nonzero;"/></g><g transform="matrix(3.63985,1.72315e-31,-1.02408e-46,3.64058,18719.8,2947.9)"><path d="M0,90.573C-12.147,90.573 -23.502,85.848 -31.971,77.27C-40.385,68.747 -45.019,57.367 -45.019,45.227C-45.019,39.705 -40.541,35.227 -35.019,35.227C-29.496,35.227 -25.019,39.705 -25.019,45.227C-25.019,59.44 -14.029,70.573 0,70.573C14.154,70.573 25.242,59.466 25.242,45.287C25.242,31.344 13.719,20 -0.445,20L-268.605,20C-274.128,20 -278.605,15.522 -278.605,10C-278.605,4.477 -274.128,0 -268.605,0L-0.445,0C24.747,0 45.242,20.315 45.242,45.287C45.242,70.258 24.946,90.573 0,90.573" style="fill:rgb(166,166,166);fill-rule:nonzero;"/></g><g transform="matrix(3.63985,1.72315e-31,-1.02408e-46,3.64058,18321.4,2402.2)"><path d="M0,90.894L-108.16,90.894C-113.683,90.894 -118.16,86.416 -118.16,80.894C-118.16,75.372 -113.683,70.894 -108.16,70.894L0,70.894C14.164,70.894 25.687,59.479 25.687,45.448C25.687,31.416 14.364,20 0.445,20C-13.584,20 -24.573,31.181 -24.573,45.454C-24.573,50.976 -29.051,55.454 -34.573,55.454C-40.096,55.454 -44.573,50.976 -44.573,45.454C-44.573,20.391 -24.378,0 0.445,0C25.392,0 45.688,20.388 45.688,45.448C45.688,70.507 25.192,90.894 0,90.894" style="fill:rgb(166,166,166);fill-rule:nonzero;"/></g><g transform="matrix(3.63985,1.72315e-31,-1.02408e-46,3.64058,18578.4,1960.46)"><path d="M0,213.232L-9.775,213.232C-15.298,213.232 -19.775,208.754 -19.775,203.232C-19.775,197.71 -15.298,193.232 -9.775,193.232L-0.173,193.232C24.997,192.32 44.689,172.42 44.689,147.862C44.689,122.876 24.394,102.548 -0.553,102.548C-1.836,102.548 -2.847,102.577 -3.733,102.638C-6.403,102.826 -9.008,101.941 -11.01,100.189C-13.013,98.437 -14.234,95.959 -14.405,93.303C-17.042,52.198 -51.399,20 -92.623,20C-120.271,20 -145.348,34.128 -159.702,57.794C-161.297,60.423 -164.014,62.173 -167.067,62.538C-170.112,62.9 -173.173,61.841 -175.342,59.66C-180.002,54.975 -186.2,52.395 -192.797,52.395C-206.371,52.395 -217.415,63.438 -217.415,77.011C-217.415,80.882 -216.536,84.594 -214.803,88.044C-213.275,91.082 -213.396,94.686 -215.123,97.614C-216.851,100.543 -219.946,102.393 -223.343,102.527C-247.64,103.486 -266.673,123.337 -266.673,147.72C-266.673,172.577 -246.472,192.932 -221.641,193.095L-213.011,193.1C-207.488,193.103 -203.014,197.583 -203.017,203.106C-203.02,208.627 -207.496,213.1 -213.017,213.1L-213.022,213.1L-221.713,213.095C-257.559,212.859 -286.673,183.532 -286.673,147.72C-286.673,116.93 -265.611,91.151 -236.828,84.284C-237.219,81.9 -237.415,79.473 -237.415,77.011C-237.415,52.41 -217.399,32.395 -192.797,32.395C-184.868,32.395 -177.259,34.449 -170.57,38.307C-152.02,14.135 -123.61,0 -92.623,0C-44.026,0 -3.031,35.657 4.516,82.744C38.13,85.342 64.689,113.556 64.689,147.862C64.689,183.322 36.42,212.034 0.33,213.226C0.221,213.23 0.11,213.232 0,213.232" style="fill:rgb(166,166,166);fill-rule:nonzero;"/></g></g></g></g></svg>